<?xml version="1.0" encoding="utf-8"?>
<!-- Generator: Adobe Illustrator 19.1.0, SVG Export Plug-In . SVG Version: 6.00 Build 0)  -->
<svg version="1.1" id="Layer_1" xmlns="http://www.w3.org/2000/svg" xmlns:xlink="http://www.w3.org/1999/xlink" x="0px" y="0px"
	 viewBox="0 0 300 300" style="enable-background:new 0 0 300 300;" xml:space="preserve">
    <style>
        path {fill:#222;}
    </style>
<g>
	<path d="M35.7,236.9c-8.9,8.8-8.9,23.1,0,32c4.4,4.4,10.3,6.6,16,6.6c5.8,0,11.6-2.2,16.1-6.6l74.3-74.4l-32-32L35.7,236.9z
		 M35.7,236.9"/>
	<path d="M221.6,99L254,82.3l17-32.8l-15.8-15.8l-32.8,17L205.6,83l-39.5,39.5l16,16L221.6,99z M221.6,99"/>
	<path d="M228.7,185l-3-0.3c-5.5,0-10.8,1.1-15.7,2.9l-93-93c1.9-4.9,2.9-10.2,2.9-15.7l-0.3-3c-1.6-23.6-21-42.3-45-42.3
		c-7,0-13.6,1.7-19.5,4.5l30.1,30.2c1.6,1.5,2.7,3.5,3.4,5.4c2,5.4,1,11.6-3.4,15.9c-3,2.9-6.8,4.4-10.6,4.4c-1.9,0-3.6-0.4-5.2-1
		c-2-0.8-3.9-1.8-5.5-3.4L33.8,59.6C31,65.5,29.3,72,29.3,78.9c0,24.1,18.7,43.4,42.3,45.1l3.1,0.3c5.5,0,10.8-1.2,15.6-2.9l93,93
		c-1.8,4.9-2.9,10.1-2.9,15.6l0.3,3.1c1.6,23.5,21,42.3,45.1,42.3c6.9,0,13.5-1.7,19.4-4.6L215,240.7c-1.6-1.5-2.7-3.5-3.5-5.4
		c-1.9-5.4-0.9-11.7,3.5-15.9c2.9-2.9,6.8-4.4,10.7-4.4c1.8,0,3.5,0.4,5.2,1c1.9,0.7,3.9,1.8,5.4,3.4l30.2,30.1
		c2.8-5.9,4.5-12.5,4.5-19.5C270.9,206,252.3,186.6,228.7,185L228.7,185z M228.7,185"/>
</g>
</svg>
