<?xml version="1.0" encoding="utf-8"?>
<!-- Generator: Adobe Illustrator 16.0.0, SVG Export Plug-In . SVG Version: 6.00 Build 0)  -->
<!DOCTYPE svg PUBLIC "-//W3C//DTD SVG 1.1//EN" "http://www.w3.org/Graphics/SVG/1.1/DTD/svg11.dtd">
<svg version="1.1" id="Layer_1" xmlns="http://www.w3.org/2000/svg" xmlns:xlink="http://www.w3.org/1999/xlink" x="0px" y="0px"
	 width="50px" height="50px" viewBox="30 15 50 50" enable-background="new 30 15 50 50" xml:space="preserve">
<g>
	<g>
		<path fill="#FBAB19" d="M37.687,64.412c-1.556,0-2.822-1.322-2.822-2.945V23.695c0-1.623,1.267-2.943,2.822-2.943h5.448V17.65
			c0-1.137,0.925-2.061,2.062-2.061c1.138,0,2.062,0.925,2.062,2.061v3.101h15.41V17.65c0-1.137,0.926-2.061,2.062-2.061
			c1.137,0,2.063,0.925,2.063,2.061v3.101h5.45c1.558,0,2.824,1.321,2.824,2.943v37.772c0,1.623-1.267,2.945-2.824,2.945H37.687z"/>
		<path d="M64.729,16.179c0.815,0,1.473,0.66,1.473,1.473v3.69h6.039c1.23,0,2.235,1.058,2.235,2.354v1.755v34.258v1.76
			c0,1.297-1.005,2.354-2.235,2.354H37.687c-1.228,0-2.233-1.057-2.233-2.354v-1.76V25.45v-1.755c0-1.296,1.006-2.354,2.233-2.354
			h6.038v-3.69c0-0.813,0.657-1.472,1.472-1.472c0.813,0,1.473,0.66,1.473,1.472v3.69h16.588v-3.69
			C63.257,16.838,63.918,16.179,64.729,16.179 M64.729,15c-1.462,0-2.651,1.188-2.651,2.65v2.513H47.847V17.65
			c0-1.462-1.188-2.65-2.65-2.65s-2.649,1.188-2.649,2.65v2.513h-4.86c-1.88,0-3.412,1.584-3.412,3.532v1.755v34.259v1.758
			c0,1.949,1.53,3.533,3.412,3.533h34.555c1.882,0,3.413-1.584,3.413-3.533v-1.758V25.45v-1.755c0-1.947-1.531-3.532-3.413-3.532
			H67.38V17.65C67.38,16.189,66.191,15,64.729,15L64.729,15z"/>
	</g>
	<path fill="#FFFFFF" d="M74.46,60.482c0,1.297-1.004,2.352-2.23,2.352h-34.53c-1.229,0-2.231-1.055-2.231-2.352v-35.9
		c0-1.293,1.003-2.352,2.231-2.352h34.53c1.227,0,2.23,1.059,2.23,2.352V60.482z"/>
	<path fill="#FBAB19" stroke="#000000" stroke-width="0.4415" stroke-miterlimit="10" d="M74.46,60.482
		c0,1.297-1.004,2.352-2.23,2.352h-34.53c-1.229,0-2.231-1.055-2.231-2.352v-35.9c0-1.293,1.003-2.352,2.231-2.352h34.53
		c1.227,0,2.23,1.059,2.23,2.352V60.482z"/>
	<path fill="#FFFFFF" d="M74.46,59.207c0,1.291-1.004,2.355-2.23,2.355h-34.53c-1.229,0-2.231-1.064-2.231-2.355V23.708
		c0-1.296,1.003-2.354,2.231-2.354h34.53c1.227,0,2.23,1.058,2.23,2.354V59.207z"/>
	<path fill="#FBAB19" stroke="#000000" stroke-width="0.4415" stroke-miterlimit="10" d="M74.46,59.207
		c0,1.291-1.004,2.355-2.23,2.355h-34.53c-1.229,0-2.231-1.064-2.231-2.355V23.708c0-1.296,1.003-2.354,2.231-2.354h34.53
		c1.227,0,2.23,1.058,2.23,2.354V59.207z"/>
	<path fill="#FBAB19" d="M74.39,58.027c0,1.262-1,2.293-2.223,2.293H37.762c-1.223,0-2.224-1.031-2.224-2.293V23.466
		c0-1.258,1-2.29,2.224-2.29h34.405c1.223,0,2.223,1.031,2.223,2.29V58.027L74.39,58.027z"/>
	<path fill="none" stroke="#000000" stroke-width="0.4347" stroke-miterlimit="10" d="M74.39,58.027c0,1.262-1,2.293-2.223,2.293
		H37.762c-1.223,0-2.224-1.031-2.224-2.293V23.466c0-1.258,1-2.29,2.224-2.29h34.405c1.223,0,2.223,1.031,2.223,2.29V58.027
		L74.39,58.027z"/>
	<path fill="none" stroke="#000000" stroke-width="0.4415" stroke-miterlimit="10" d="M74.46,32.535H35.467v-8.984
		c0-1.292,1.003-2.351,2.231-2.351h34.531c1.226,0,2.229,1.058,2.229,2.351L74.46,32.535L74.46,32.535z"/>
	<path fill="none" stroke="#000000" stroke-width="0.4415" stroke-miterlimit="10" d="M74.46,32.535H35.467v-8.984
		c0-1.292,1.003-2.351,2.231-2.351h34.531c1.226,0,2.229,1.058,2.229,2.351L74.46,32.535L74.46,32.535z"/>
	<path d="M46.598,37.369h-0.042l-2.638,1.257l-0.531-2.429l3.658-1.698h2.681v13.833h-3.128V37.369z"/>
	<path d="M59.999,48.33v-3.301h-6.126v-2.105l5.234-8.424h3.955v8.106h1.66v2.424h-1.66v3.301H59.999z M59.999,42.605v-3.065
		c0-0.828,0.044-1.679,0.109-2.577h-0.087c-0.448,0.897-0.809,1.703-1.275,2.577l-1.852,3.02v0.045H59.999L59.999,42.605z"/>
	<path d="M46.482,55.99c-0.022-0.658-0.049-1.455-0.049-2.256H46.41c-0.172,0.703-0.4,1.484-0.611,2.125l-0.668,2.139h-0.967
		l-0.586-2.123c-0.178-0.639-0.366-1.422-0.496-2.141h-0.017c-0.032,0.74-0.056,1.588-0.098,2.271l-0.098,2.082h-1.146l0.35-5.482
		h1.651l0.537,1.834c0.17,0.631,0.342,1.318,0.463,1.959h0.025c0.154-0.633,0.341-1.361,0.521-1.969l0.585-1.822h1.618l0.303,5.482
		h-1.211L46.482,55.99z"/>
	<path d="M49.982,56.684l-0.391,1.406h-1.287l1.678-5.482h1.627l1.7,5.482h-1.334l-0.423-1.406H49.982z M51.375,55.758l-0.344-1.164
		c-0.098-0.326-0.193-0.732-0.276-1.063H50.74c-0.082,0.33-0.164,0.742-0.254,1.063l-0.324,1.164H51.375z"/>
	<path d="M54.043,52.68c0.397-0.066,0.991-0.117,1.652-0.117c0.814,0,1.383,0.125,1.773,0.434c0.327,0.262,0.505,0.645,0.505,1.145
		c0,0.703-0.496,1.184-0.967,1.352v0.027c0.382,0.152,0.593,0.518,0.732,1.025c0.169,0.617,0.342,1.334,0.445,1.545h-1.269
		c-0.09-0.154-0.217-0.602-0.383-1.279c-0.146-0.682-0.382-0.865-0.888-0.877H55.27v2.156h-1.229v-5.41H54.043z M55.271,55.037
		h0.487c0.62,0,0.985-0.307,0.985-0.787c0-0.504-0.342-0.758-0.912-0.766c-0.301,0-0.472,0.023-0.561,0.041V55.037z"/>
	<path d="M62.865,57.936c-0.229,0.115-0.74,0.236-1.41,0.236c-1.896,0-2.872-1.18-2.872-2.742c0-1.871,1.336-2.914,2.996-2.914
		c0.643,0,1.13,0.133,1.35,0.244l-0.251,0.988c-0.252-0.105-0.602-0.207-1.042-0.207c-0.986,0-1.749,0.592-1.749,1.82
		c0,1.092,0.651,1.787,1.758,1.787c0.374,0,0.789-0.082,1.033-0.18L62.865,57.936z"/>
	<path d="M64.923,52.605v2.105h2.043v-2.105H68.2v5.482h-1.234v-2.293h-2.043v2.293h-1.245v-5.482H64.923z"/>
	<path d="M66.931,26.09c0,1.222-0.989,2.21-2.206,2.21c-1.221,0-2.209-0.988-2.209-2.21c0-1.219,0.988-2.203,2.209-2.203
		C65.941,23.888,66.931,24.872,66.931,26.09z"/>
	<path fill="#FBAB19" stroke="#000000" stroke-width="0.4415" stroke-miterlimit="10" d="M64.723,27.137
		c-0.815,0-1.473-0.661-1.473-1.472v-7.999c0-0.813,0.657-1.472,1.473-1.472c0.812,0,1.471,0.66,1.471,1.472v7.999
		C66.193,26.477,65.534,27.137,64.723,27.137z"/>
	<path d="M42.996,26.09c0,1.222,0.988,2.21,2.207,2.21s2.208-0.988,2.208-2.21c0-1.219-0.987-2.203-2.208-2.203
		C43.984,23.888,42.996,24.872,42.996,26.09z"/>
	<path fill="#FBAB19" stroke="#000000" stroke-width="0.4415" stroke-miterlimit="10" d="M45.203,27.137
		c0.813,0,1.471-0.661,1.471-1.472v-7.999c0-0.813-0.66-1.472-1.471-1.472c-0.813,0-1.471,0.66-1.471,1.472v7.999
		C43.732,26.477,44.391,27.137,45.203,27.137z"/>
</g>
</svg>
