<?xml version="1.0" encoding="utf-8"?>
<!-- Generator: Adobe Illustrator 16.0.0, SVG Export Plug-In . SVG Version: 6.00 Build 0)  -->
<!DOCTYPE svg PUBLIC "-//W3C//DTD SVG 1.1//EN" "http://www.w3.org/Graphics/SVG/1.1/DTD/svg11.dtd">
<svg version="1.1" id="Layer_1" xmlns="http://www.w3.org/2000/svg" xmlns:xlink="http://www.w3.org/1999/xlink" x="0px" y="0px"
	 width="50px" height="55px" viewBox="0 0 50 55" enable-background="new 0 0 50 55" xml:space="preserve">
<g>
	<path fill-rule="evenodd" clip-rule="evenodd" fill="#FFFFFF" d="M28.07,52.526c0-7.806,0-15.591,0-23.399c2.923,0,5.829,0,8.748,0
		c0.136-2.861,0.269-5.698,0.405-8.559c-3.074,0-6.11,0-9.156,0c0-0.062,0-0.1,0-0.138c0-2.051-0.006-4.102,0.007-6.152
		c0.001-0.435,0.043-0.872,0.115-1.301c0.139-0.83,0.537-1.486,1.35-1.828c0.493-0.207,1.012-0.305,1.541-0.306
		c1.874-0.007,3.749,0.002,5.624,0.004c0.088,0,0.176,0,0.272,0c0.067-2.679,0.134-5.326,0.201-7.991
		c-0.393-0.038-0.761-0.077-1.13-0.109c-1.984-0.17-3.972-0.281-5.966-0.186c-1.411,0.068-2.791,0.309-4.125,0.782
		c-2.532,0.9-4.496,2.476-5.734,4.891c-0.833,1.623-1.19,3.36-1.189,5.179c0.001,2.304,0,4.609,0,6.914c0,0.076,0,0.152,0,0.251
		c-2.076,0-4.129,0-6.189,0c0,2.858,0,5.693,0,8.554c2.063,0,4.116,0,6.194,0c0,7.812,0,15.602,0,23.395
		C22.056,52.526,25.048,52.526,28.07,52.526z"/>
	<path fill-rule="evenodd" clip-rule="evenodd" d="M28.07,52.526c-3.022,0-6.015,0-9.032,0c0-7.793,0-15.583,0-23.395
		c-2.078,0-4.13,0-6.194,0c0-2.86,0-5.696,0-8.554c2.06,0,4.113,0,6.189,0c0-0.099,0-0.175,0-0.251c0-2.305,0.001-4.61,0-6.914
		c-0.001-1.818,0.356-3.556,1.189-5.179c1.239-2.415,3.202-3.99,5.734-4.891c1.334-0.474,2.714-0.714,4.125-0.782
		c1.994-0.095,3.981,0.016,5.966,0.186c0.369,0.032,0.737,0.071,1.13,0.109c-0.067,2.666-0.134,5.312-0.201,7.991
		c-0.097,0-0.185,0-0.272,0c-1.875-0.002-3.75-0.012-5.624-0.004c-0.529,0.001-1.048,0.099-1.541,0.306
		c-0.813,0.341-1.211,0.998-1.35,1.828c-0.072,0.429-0.114,0.866-0.115,1.301c-0.013,2.05-0.007,4.101-0.007,6.152
		c0,0.038,0,0.077,0,0.138c3.046,0,6.082,0,9.156,0c-0.137,2.861-0.27,5.698-0.405,8.559c-2.919,0-5.825,0-8.748,0
		C28.07,36.936,28.07,44.721,28.07,52.526z"/>
</g>
</svg>
